<svg
  width="181"
  height="271"
  viewBox="0 0 181 271"
  fill="none"
  xmlns="http://www.w3.org/2000/svg"
>
<g clip-path="url(#clip0_2743_22577)">
<path
      d="M32.794 80.3562C21.8259 79.0458 11.1109 77.7614 0 76.4315C0.266091 74.3297 0.434831 72.4354 0.746352 70.5606C4.17308 50.2364 12.0195 32.2476 28.3419 18.7998C39.0439 9.9773 51.5047 5.15736 65.0299 2.58197C80.3853 -0.343731 95.6693 -1.23895 111.077 2.32248C140.911 9.22479 163.542 33.0261 167.903 62.8215C169.136 71.2483 169.552 79.8048 170.116 88.3159C170.343 91.7282 169.435 94.8031 166.391 97.1514C163.769 99.1754 163.522 102.075 165.184 105.033C170.006 113.609 174.529 122.373 179.734 130.709C182.979 135.906 179.54 140.388 174.315 140.635C171.667 140.758 168.961 141.309 166.436 142.133C164.068 142.905 163.016 144.722 164.392 147.252C164.548 147.537 164.645 147.848 164.768 148.147C167.098 153.641 166.242 155.347 160.388 156.852C159.674 157.034 158.979 157.287 159.012 157.274C159.57 160.161 160.355 162.782 160.498 165.428C160.595 167.277 159.284 168.173 157.169 167.848C151.853 167.024 150.413 168.692 150.231 174.173C150.12 177.436 149.523 180.9 148.206 183.852C145.603 189.677 139.769 192.623 133.526 191.442C127.055 190.222 120.636 188.646 114.276 186.914C110.869 185.986 108.331 186.7 106.267 189.411C102.263 194.685 98.4665 199.953 99.1739 207.232C99.5373 210.968 98.9792 214.789 98.9078 218.571C98.8818 220.057 98.5963 221.049 96.7791 221.043C87.3751 221.004 77.9775 221.023 68.5151 221.023C68.2944 220.439 68.0218 220.05 68.0283 219.674C68.249 205.85 67.8596 191.974 68.8915 178.208C70.1765 161.037 78.0878 146.557 90.2696 134.556C99.745 125.221 109.72 116.405 119.312 107.193C125.504 101.245 131.319 94.855 133.727 86.3438C138.653 68.9194 133.636 54.1482 121.013 41.6929C99.9981 20.947 63.6346 22.8607 46.0466 45.6306C38.7064 55.1277 35.416 66.2986 33.2678 77.8846C33.151 78.5139 33.0212 79.1366 32.7746 80.3627L32.794 80.3562Z"
      fill="#5E5E5E"
      fill-opacity="0.5"
    />
<path
      d="M68.0672 255.275C68.2683 246.641 75.2192 239.985 83.8379 240.173C92.3723 240.361 99.0765 247.445 98.8558 256.047C98.6416 264.565 91.5221 271.227 82.8968 270.987C74.5182 270.76 67.8725 263.715 68.0672 255.275Z"
      fill="#5E5E5E"
      fill-opacity="0.5"
    />
</g>
<defs>
<clipPath id="clip0_2743_22577">
<rect width="181" height="271" fill="white" />
</clipPath>
</defs>
</svg>
